HIERARCHY
ROOT hip
{
	OFFSET 0.000000 0.000000 0.000000 
	CHANNELS 6 Xposition Yposition Zposition Xrotation Zrotation Yrotation
	JOINT abdomen
	{
		OFFSET 0.000000 3.402643 0.000000 
		CHANNELS 3 Xrotation Zrotation Yrotation
		JOINT chest
		{
			OFFSET 0.000000 8.438565 -0.680529 
			CHANNELS 3 Xrotation Zrotation Yrotation
			JOINT neck
			{
				OFFSET 0.000000 10.207942 -0.272212 
				CHANNELS 3 Xrotation Zrotation Yrotation
				JOINT head
				{
					OFFSET 0.000000 3.130431 0.000000 
					CHANNELS 3 Xrotation Zrotation Yrotation
					End Site
					{
						OFFSET 0.000000 3.130435 0.000000 
					}
				}
			}
			JOINT lCollar
			{
				OFFSET 3.470700 6.669187 -0.816635 
				CHANNELS 3 Yrotation Zrotation Xrotation
				JOINT lShldr
				{
					OFFSET 3.198488 0.000000 0.000000 
					CHANNELS 3 Zrotation Yrotation Xrotation
					JOINT lForeArm
					{
						OFFSET 10.139888 0.000000 0.000000 
						CHANNELS 3 Yrotation Zrotation Xrotation
						JOINT lHand
						{
							OFFSET 8.370511 0.000000 0.000000 
							CHANNELS 3 Zrotation Yrotation Xrotation
							End Site
							{
								OFFSET 4.083176 0.000000 0.000000 
							}
						}
					}
				}
			}
			JOINT rCollar
			{
				OFFSET -3.470700 6.669187 -0.816635 
				CHANNELS 3 Yrotation Zrotation Xrotation
				JOINT rShldr
				{
					OFFSET -3.198488 0.000000 0.000000 
					CHANNELS 3 Zrotation Yrotation Xrotation
					JOINT rForeArm
					{
						OFFSET -10.139888 0.000000 0.000000 
						CHANNELS 3 Yrotation Zrotation Xrotation
						JOINT rHand
						{
							OFFSET -8.370511 0.000000 0.000000 
							CHANNELS 3 Zrotation Yrotation Xrotation
							End Site
							{
								OFFSET -4.083176 0.000000 0.000000 
							}
						}
					}
				}
			}
		}
	}
	JOINT lThigh
	{
		OFFSET 5.308129 -1.633274 1.361059 
		CHANNELS 3 Xrotation Zrotation Yrotation
		JOINT lShin
		{
			OFFSET -2.041588 -20.007561 0.000000 
			CHANNELS 3 Xrotation Zrotation Yrotation
			JOINT lFoot
			{
				OFFSET 0.000000 -19.190928 -1.224953 
				CHANNELS 3 Xrotation Yrotation Zrotation
				End Site
				{
					OFFSET 0.000000 -2.449906 4.627600 
				}
			}
		}
	}
	JOINT rThigh
	{
		OFFSET -5.308129 -1.633274 1.361059 
		CHANNELS 3 Xrotation Zrotation Yrotation
		JOINT rShin
		{
			OFFSET 2.041588 -20.007561 0.000000 
			CHANNELS 3 Xrotation Zrotation Yrotation
			JOINT rFoot
			{
				OFFSET 0.000000 -19.190928 -1.224953 
				CHANNELS 3 Xrotation Yrotation Zrotation
				End Site
				{
					OFFSET 0.000000 -2.449906 4.627600 
				}
			}
		}
	}
}
MOTION
Frames: 6
Frame Time: 0.033333
-0.444737 44.793945 -47.999355 5.625000 -8.974609 52.176212 24.248045 5.429688 0.966797 -16.435547 -0.556641 -0.263672 -14.941406 -3.798828 -23.750647 8.427734 7.197266 -24.276121 1.162109 8.535157 0.330582 -87.304688 -45.361328 63.928596 -63.164059 -2.861328 -26.444824 8.095703 14.951171 1.621094 -3.164063 1.494141 -0.107422 63.642574 31.611328 -5.087890 64.619141 3.544922 -52.393181 -20.009768 -5.302734 1.582031 -21.258005 25.902437 22.983011 46.479317 -0.892187 -3.095130 -20.623577 8.937656 -1.888566 -39.860245 -21.589018 -16.526997 42.108936 0.507686 2.531977 -3.127225 -0.907794 4.946302 
-0.341704 44.737507 -47.883514 4.912109 -8.623047 53.437496 24.062498 5.263671 0.908203 -16.435547 -0.380859 -0.263672 -13.710937 -3.623047 -23.770149 8.779297 6.845704 -24.256647 2.519531 9.433595 0.418321 -87.109375 -52.001953 63.652344 -67.314453 -2.724609 -25.233912 7.441407 19.345703 1.897768 -4.394531 0.966797 -0.117188 62.080082 32.822266 -7.465409 68.134766 3.583984 -59.785152 -24.023438 -7.421875 2.801475 -20.886862 25.882624 21.804441 46.473377 -0.616187 -2.963046 -20.915195 8.532371 -1.898275 -38.798378 -21.747608 -16.116293 42.819309 0.325309 2.323997 -4.112747 -1.587635 5.230276 
-0.222309 44.631626 -47.706383 4.218750 -8.095604 54.989193 23.710938 4.980468 0.634766 -16.601564 -0.029297 -0.449219 -12.285156 -3.466797 -23.955076 8.955079 6.494141 -24.422724 4.238281 10.341797 0.408403 -85.791016 -61.298832 62.159401 -72.714844 -2.480469 -18.896063 7.861328 19.492189 2.034510 -5.986328 0.097656 -0.185547 60.478519 35.341797 -10.355680 73.232422 3.740235 -62.050781 -26.484375 -8.007813 3.416609 -20.741974 26.141464 20.602148 46.825687 -0.430700 -2.914404 -21.213831 8.082506 -1.970308 -37.738594 -22.084307 -16.317299 44.219540 0.172919 2.476197 -5.135269 -2.645521 4.980317 
-0.080387 44.476784 -47.451584 3.681641 -7.568360 56.601563 23.525389 4.531250 0.302734 -17.304688 0.322266 -0.468695 -10.156251 -2.958985 -24.179686 8.955079 6.494141 -24.598505 5.917969 11.630860 0.507812 -78.798828 -71.699219 53.721195 -78.183594 -1.835938 -6.913749 7.880859 17.050777 1.806641 -7.216797 -0.791016 -0.117187 58.193363 38.750000 -16.517324 81.435547 3.730469 -65.380623 -24.677734 -5.371094 2.070312 -20.729284 26.260641 19.700466 47.177021 -0.423544 -2.928578 -21.856573 7.013875 -2.349445 -37.026100 -22.611834 -16.289267 46.150497 0.165933 2.590552 -6.536241 -3.806816 4.826873 
0.077423 44.263008 -47.143440 3.339844 -7.041016 57.977322 23.349607 4.082031 -0.019531 -18.359375 0.507813 -0.683506 -7.666016 -2.646484 -24.570314 8.779297 6.494141 -24.959831 7.412109 12.929688 0.527344 -51.484375 -80.869141 20.781378 -83.310547 -1.787109 -4.355469 9.228516 12.109376 1.494141 -8.437500 -1.513672 -0.058594 55.000000 45.439453 -25.761717 89.726563 3.603516 -65.586555 -23.945313 -3.164063 1.142578 -20.546530 26.922621 19.112644 47.727467 -0.736032 -2.912323 -21.961016 5.667709 -2.795321 -36.715618 -23.707378 -16.940334 48.427639 0.156156 2.856359 -7.933067 -4.531830 4.285423 
0.240687 43.987225 -46.765217 3.339844 -6.865235 59.207817 23.339842 3.632812 -0.351563 -19.765625 0.517578 -0.908115 -5.869141 -2.324219 -24.951567 8.779297 6.845704 -25.311335 8.544922 13.710938 0.683594 11.250000 -80.214844 -49.531105 -87.177734 -1.855469 -4.696949 11.630859 5.957031 0.957031 -10.195313 -2.226563 -0.058594 48.037113 55.927734 -36.154018 95.166016 3.632813 -61.455692 -23.076172 0.400391 -0.439384 -20.749289 27.394466 19.418209 48.413082 -0.423536 -3.337964 -22.136276 4.244537 -3.254230 -36.695736 -24.380604 -17.273371 50.710144 -0.009709 2.907949 -9.810718 -5.612659 3.921352 
